<?xml version="1.0" encoding="UTF-8" standalone="no"?>
<!-- Created with Inkscape (http://www.inkscape.org/) -->

<svg
   width="7.5in"
   height="3.75in"
   viewBox="0 0 190.49999 95.25"
   version="1.1"
   id="svg1"
   xml:space="preserve"
   inkscape:export-filename="Lmesh.png"
   inkscape:export-xdpi="96"
   inkscape:export-ydpi="96"
   inkscape:version="1.4.2 (ebf0e940d0, 2025-05-08)"
   sodipodi:docname="Lmesh.svg"
   xmlns:inkscape="http://www.inkscape.org/namespaces/inkscape"
   xmlns:sodipodi="http://sodipodi.sourceforge.net/DTD/sodipodi-0.dtd"
   xmlns="http://www.w3.org/2000/svg"
   xmlns:svg="http://www.w3.org/2000/svg"><sodipodi:namedview
     id="namedview1"
     pagecolor="#ffffff"
     bordercolor="#000000"
     borderopacity="0.25"
     inkscape:showpageshadow="2"
     inkscape:pageopacity="0.0"
     inkscape:pagecheckerboard="0"
     inkscape:deskcolor="#d1d1d1"
     inkscape:document-units="mm"
     inkscape:zoom="0.972298"
     inkscape:cx="312.66134"
     inkscape:cy="313.68983"
     inkscape:window-width="1920"
     inkscape:window-height="989"
     inkscape:window-x="0"
     inkscape:window-y="28"
     inkscape:window-maximized="0"
     inkscape:current-layer="layer2" /><defs
     id="defs1"><style
       id="style1">
      .cls-1 {
        fill: #2c2d3c;
      }

      .cls-1, .cls-2, .cls-3 {
        stroke-width: 0px;
      }

      .cls-2 {
        fill: #67ea94;
      }

      .cls-3 {
        fill: #fff;
      }
    </style><style
       id="style4609">
      .cls-1 {
        fill: #2c2d3c;
      }

      .cls-1, .cls-2 {
        stroke-width: 0px;
      }

      .cls-2 {
        fill: #67ea94;
      }
    </style></defs><g
     inkscape:groupmode="layer"
     id="layer2"
     inkscape:label="Layer 2"><rect
       style="fill:#67ea94;fill-opacity:1;stroke:none;stroke-width:0.263934;stroke-opacity:1"
       id="rect41"
       width="193.91731"
       height="97.548576"
       x="-2.1632171"
       y="-0.99561602"
       sodipodi:insensitive="true" /><rect
       style="fill:#2a283b;fill-opacity:1;stroke:#2b2c32;stroke-width:0.338875;stroke-opacity:1"
       id="rect42"
       width="202.02544"
       height="21.996317"
       x="-5.7627182"
       y="73.084244" /><text
       xml:space="preserve"
       style="font-style:normal;font-variant:normal;font-weight:600;font-stretch:normal;font-size:23.7961px;line-height:0.5;font-family:'Open Sans';-inkscape-font-specification:'Open Sans, Semi-Bold';font-variant-ligatures:normal;font-variant-caps:normal;font-variant-numeric:normal;font-variant-east-asian:normal;text-align:start;writing-mode:lr-tb;direction:ltr;text-anchor:start;fill:#67ea94;fill-opacity:1;stroke:#2b2c32;stroke-width:0.318697;stroke-opacity:1"
       x="58.510326"
       y="92.605873"
       id="text42"><tspan
         sodipodi:role="line"
         id="tspan42"
         style="font-style:normal;font-variant:normal;font-weight:600;font-stretch:normal;font-size:23.7961px;font-family:'Open Sans';-inkscape-font-specification:'Open Sans, Semi-Bold';font-variant-ligatures:normal;font-variant-caps:normal;font-variant-numeric:normal;font-variant-east-asian:normal;fill:#67ea94;fill-opacity:1;stroke-width:0.318697"
         x="58.510326"
         y="92.605873">PWRD</tspan></text><g
       id="g42"
       transform="matrix(0.18201984,0,0,0.18201984,-45.074741,-37.88729)"
       style="fill:#2a283b;fill-opacity:1;stroke:#2a283b;stroke-width:1.00157;stroke-dasharray:none;stroke-opacity:1"><g
         id="g43"
         transform="matrix(0.18973767,0,0,0.18973767,581.57271,352.35049)"
         style="fill:#2a283b;fill-opacity:1;stroke:#2a283b;stroke-width:5.27873;stroke-dasharray:none;stroke-opacity:1"><path
           class="cls-1"
           d="m -139.63813,554.04605 c -7.4752,10.63141 -14.37214,20.39566 -21.22349,30.19167 -62.68561,89.62731 -125.36335,179.26018 -188.04485,268.89037 -0.57258,0.81874 -1.13637,1.64598 -1.75207,2.43186 -3.82485,4.88178 -4.32372,5.0275 -9.7006,1.46763 -12.70347,-8.41072 -25.36593,-16.88376 -38.01347,-25.37853 -7.79142,-5.23316 -7.90587,-5.83521 -2.57486,-13.44742 31.94418,-45.61377 63.90127,-91.21862 95.8654,-136.81841 43.14434,-61.54964 86.27925,-123.10602 129.48347,-184.61367 3.86001,-5.49532 7.38144,-11.22595 12.24113,-16.03869 13.25674,-13.12876 37.28379,-12.53572 48.96104,3.2886 10.0843,13.6657 19.83342,27.56115 29.65121,41.40787 68.89636,97.16912 137.6986,194.40501 206.52803,291.62153 7.83226,11.0626 7.13773,9.79202 -3.15678,16.9286 -11.69922,8.1105 -23.55601,15.99402 -35.34989,23.968 -7.23496,4.89157 -7.32899,4.94702 -12.23225,-2.06031 -17.75314,-25.37098 -35.44804,-50.78268 -53.1522,-76.18789 -50.8269,-72.93612 -101.64621,-145.87757 -152.47815,-218.81021 -1.42257,-2.04109 -2.95399,-4.00641 -5.05167,-6.841 z"
           id="path4617"
           inkscape:connector-curvature="0"
           style="fill:#2a283b;fill-opacity:1;stroke:#2a283b;stroke-width:5.27873;stroke-dasharray:none;stroke-opacity:1" /><path
           class="cls-1"
           d="m -386.51738,463.88349 c 7.87117,5.4521 15.4219,10.68623 22.97693,15.91419 7.19046,4.97563 14.41224,9.90646 21.5691,14.92977 5.07044,3.55891 5.07218,3.68873 1.57061,8.70379 -17.0186,24.37444 -34.04498,48.74346 -51.08646,73.10193 -41.67234,59.56524 -83.36051,119.11953 -125.03042,178.68659 -23.19794,33.16164 -46.37162,66.34024 -69.55734,99.51043 -0.42938,0.61431 -0.85552,1.23206 -1.31201,1.82605 -3.28418,4.27338 -3.36081,4.38149 -7.68128,1.46951 -13.24726,-8.92863 -26.47837,-17.88298 -39.62011,-26.96553 -5.65973,-3.91147 -5.67003,-4.55452 -1.43534,-10.61153 37.35955,-53.43658 74.73933,-106.85907 112.11651,-160.28331 41.67293,-59.56421 83.34655,-119.12786 125.02859,-178.68569 3.99706,-5.71128 8.05619,-11.3793 12.46122,-17.5962 z"
           id="path4619"
           inkscape:connector-curvature="0"
           style="fill:#2a283b;fill-opacity:1;stroke:#2a283b;stroke-width:5.27873;stroke-dasharray:none;stroke-opacity:1" /></g></g></g><g
     inkscape:label="Layer 1"
     inkscape:groupmode="layer"
     id="layer1"
     style="display:inline"><path
       style="fill:#99e49c;fill-opacity:1;stroke:none;stroke-width:0.0504196;stroke-opacity:1"
       d="m 380.76901,344.19111 c 0,-0.068 0.8978,-0.61222 1.7977,-1.0897 1.20322,-0.63841 1.49073,-0.82227 1.79582,-1.14844 0.17776,-0.19004 0.24183,-0.30693 0.2926,-0.53379 0.0582,-0.26009 0.0538,-0.33971 -0.0419,-0.76128 -0.0588,-0.25895 -0.2644,-0.86352 -0.45693,-1.34349 -0.19254,-0.47997 -0.40681,-1.05418 -0.47614,-1.27603 -0.15106,-0.48328 -0.35613,-1.41314 -0.32936,-1.49343 0.0105,-0.0315 0.48635,1.18783 1.05745,2.70964 l 1.03835,2.76694 -0.18337,0.1676 c -0.13198,0.12062 -0.78081,0.42797 -2.315,1.09662 -1.17239,0.51097 -2.14233,0.92904 -2.15544,0.92904 -0.0131,0 -0.0238,-0.0107 -0.0238,-0.0237 z"
       id="path14"
       transform="scale(0.26458333)" /><path
       style="fill:#99e49c;fill-opacity:1;stroke:none;stroke-width:0.0504196;stroke-opacity:1"
       d=""
       id="path15"
       transform="scale(0.26458333)" /><path
       style="fill:#99e49c;fill-opacity:1;stroke:none;stroke-width:0.0504196;stroke-opacity:1"
       d="m 374.12864,349.64766 c 0.0738,-0.20242 0.57826,-0.89023 0.8461,-1.15365 0.33676,-0.3312 0.71361,-0.53075 1.13047,-0.59859 0.31888,-0.0519 0.35146,-0.0493 1.38945,0.11067 1.30038,0.20042 1.54335,0.0358 1.84302,-1.24888 0.0707,-0.30297 0.18544,-0.72102 0.25503,-0.929 0.12677,-0.37886 0.35819,-0.83492 0.40162,-0.79149 0.0229,0.0229 -1.01926,3.96357 -1.05868,4.00299 -0.0113,0.0113 -0.66072,-0.22031 -1.44319,-0.51466 -1.39397,-0.52439 -1.42485,-0.53334 -1.53035,-0.44376 -0.0592,0.0503 -0.44861,0.39774 -0.8653,0.7721 -0.9983,0.89689 -1.0087,0.90542 -0.96817,0.79427 z"
       id="path16"
       transform="scale(0.26458333)" /><path
       style="fill:#99e49c;fill-opacity:1;stroke:none;stroke-width:0.0504196;stroke-opacity:1"
       d=""
       id="path19"
       transform="scale(0.26458333)" /><path
       style="fill:#99e49c;fill-opacity:1;stroke:none;stroke-width:0.0504196;stroke-opacity:1"
       d=""
       id="path22"
       transform="scale(0.26458333)" /><path
       style="fill:#2a283b;fill-opacity:1;stroke:#2a283b;stroke-width:0.733915;stroke-dasharray:none;stroke-opacity:1"
       d="m 47.2223,57.683093 c -0.104306,-0.371188 -0.311522,-0.86685 -0.158984,-1.248956 0.221694,-0.55531 1.691789,-1.156006 2.222995,-0.882507 0.528173,0.271916 0.38022,1.064453 0.939596,1.246019 0.752351,0.244194 1.646626,-0.638334 2.384555,-0.12836 0.588959,0.407031 -0.120512,1.03402 0.09001,1.573657 0.208191,0.533672 0.899505,0.346434 1.223917,0.742098 0.304408,0.371262 0.09845,0.943551 0.480412,1.274602 0.39111,0.33899 0.987631,0.06778 1.445658,0.107241 1.033811,0.089 1.774663,0.420391 2.324722,1.332816 0.474611,0.787287 -1.223998,1.851512 -0.398564,2.701446 0.315372,0.324739 1.203402,0.279192 1.640147,0.463794 0.981451,0.414866 2.430259,0.695194 3.298852,1.219306 0.811813,0.489859 0.924161,1.456672 2.108128,1.035836 1.830884,-0.650792 2.751162,-2.696491 4.552869,-3.205652 0.726134,-0.205205 1.771993,0.03672 2.049005,0.787987 0.232013,0.629192 -0.02535,1.657985 0.876404,1.715428 2.300308,0.146512 3.450583,-2.249561 5.636529,-2.524636 1.14595,-0.144194 1.858547,0.461746 2.876043,0.802809 0.417783,0.140035 0.998033,0.138912 1.348916,0.41871 0.884345,0.705215 0.938114,3.215751 2.562329,2.389087 0.282297,-0.14367 0.543167,-0.326097 0.805482,-0.502326 0.161826,0.586866 0.665056,2.212988 1.378474,2.309895 0.432973,0.05883 0.493178,-0.529301 0.607083,-0.809823 0.300972,-0.741293 1.02195,-1.111514 1.192038,-1.960249 0.247079,-1.232834 -0.341256,-1.28594 -0.87355,-2.106792 -0.186211,-0.287171 -0.08814,-0.678599 -0.163591,-0.997656 -0.186358,-0.788071 -2.313327,-1.528768 -2.715652,-0.806965 H 84.72603 c -0.609548,-1.164325 -1.618541,-0.85949 -2.633442,-1.330353 -0.396885,-0.184133 -1.37536,-1.810354 -1.487647,-2.235942 -0.247878,-0.939344 1.036076,-1.315897 1.555282,-1.647071 0.375216,-0.239344 0.312719,-0.756762 0.578762,-1.079145 0.415474,-0.503435 1.242624,-0.456232 1.234753,-1.300353 -0.0061,-0.519061 -0.339941,-0.997773 -0.452358,-1.495459 -0.146767,-0.649695 0.220984,-1.837692 -0.278655,-2.346466 -0.355304,-0.361813 -0.927596,-0.06353 -1.2777,0.140696 -1.170318,0.682647 -1.380507,1.374443 -1.380507,2.665938 l -1.035385,-0.34512 c 0.347207,-1.871391 -1.13986,-0.510801 -1.495536,-1.725634 1.427261,0.240721 3.272556,-1.311822 3.506023,-2.876057 0.07915,-0.530454 -0.352778,-1.019797 -0.518834,-1.495544 -0.411296,-1.178267 -0.432532,-2.535816 -1.224823,-3.566305 -0.641293,-0.83411 -1.539201,-1.617947 -1.60329,-2.76101 -0.08287,-1.477673 0.715148,-2.676153 1.181831,-4.02648 0.136179,-0.394034 0.509596,-1.271076 0.0852,-1.607394 -0.319826,-0.253458 -1.043356,-0.118235 -1.426115,-0.118235 H 74.487275 60.337093 c -1.722472,0 -5.274937,0.979422 -6.085336,-1.03538 -0.125379,-0.31171 -0.245309,-1.992398 -0.04554,-2.231871 0.247745,-0.296981 0.717646,-0.205308 0.961084,-0.555414 0.354929,-0.510451 0.793751,-1.56858 1.027214,-2.159527 0.295624,-0.7483 -0.497166,-1.399 -0.286714,-2.035959 0.140355,-0.4248 0.889426,-0.488564 1.113938,-0.960107 0.241557,-0.507347 0.09768,-1.111269 0.344856,-1.605618 0.637777,-1.275541 1.70748,-2.720281 2.525694,-3.896169 0.29644,-0.426036 0.858905,-0.453653 1.164713,-0.852164 0.252557,-0.329132 0.128195,-0.758861 0.31867,-1.108074 0.23857,-0.437398 0.765605,-0.61277 1.016121,-1.050735 0.279572,-0.488784 0.26568,-1.098218 0.519725,-1.605979 0.290938,-0.581507 1.073107,-1.148482 1.056067,-1.840582 -0.02015,-0.819366 -1.300796,-1.268243 -1.657726,-2.004627 -0.254262,-0.524573 0.144751,-1.044003 0.248189,-1.56177 C 62.739969,10.065422 62.142626,9.387787 61.37248,9.020275 61.635254,8.542587 62.031204,7.48511 61.42845,7.069354 61.134103,6.866344 60.536761,7.100834 60.472343,6.595956 60.411883,6.122094 61.023503,5.631901 61.209463,5.223882 61.732726,4.075763 60.911934,3.205054 59.85745,2.870756 59.014565,2.603541 57.880568,2.827856 57.000923,2.806316 54.856072,2.753786 52.711166,2.692959 50.558562,2.692959 c -6.525608,0 -13.032194,-0.115043 -19.557163,-0.115043 h -8.052958 c -0.553746,0 -2.272982,-0.282444 -2.642776,0.184458 -0.322923,0.407725 -0.118237,1.504389 -0.118237,2.001344 v 5.406983 c 0,1.962416 0.115042,3.907121 0.115042,5.86715 0,1.039248 -0.205081,2.324575 0.03613,3.336221 0.304388,1.276635 1.810112,1.739465 2.292237,2.876495 0.268662,0.633618 0.74929,1.612705 0.752654,2.300401 0.004,0.830082 -0.40328,1.568384 -0.07288,2.415885 0.300558,0.770967 0.97969,1.458383 1.392224,2.185801 0.316836,0.558669 0.199624,1.17242 0.467977,1.725633 0.511476,1.05441 1.373997,1.956764 1.755285,3.106137 0.409327,1.233887 -0.156947,2.788972 -0.276779,4.026474 -0.07475,0.771998 -0.0054,1.583106 -0.364646,2.300846 -0.466571,0.932415 -1.530762,1.555255 -1.70105,2.645967 -0.18827,1.205878 -0.426233,2.938647 -0.216856,4.141515 0.166215,0.954909 0.850382,1.870053 0.52488,2.876053 -0.224697,0.694447 -0.709415,1.27404 -0.969075,1.955719 -0.221587,0.581722 -0.216406,1.198561 -0.588613,1.725187 -0.451541,0.638879 -1.607425,1.132267 -1.344022,2.071201 0.148724,0.530131 0.837741,1.569083 1.429418,1.665359 0.671316,0.109228 1.402539,-0.623618 2.060016,-0.76579 1.326903,-0.286937 2.789443,-0.2088 4.141518,-0.209314 1.310621,-4.35e-4 2.499892,-0.222059 3.796392,0.133239 1.627343,0.445962 2.987865,1.451411 4.486644,2.169377 1.493567,0.715477 3.543176,1.191468 5.176895,1.456399 1.667775,0.270456 2.960574,-0.884588 4.601686,-0.830143 1.134383,0.03766 2.277075,1.574868 3.221179,1.361064 1.324193,-0.299894 1.715894,-1.667828 0.570598,-2.45317 -1.187197,-0.814076 -2.904192,-1.062509 -4.25194,-0.571309 M 60.797305,7.869853 c -0.103628,0.38541 -0.51623,0.850802 -0.335183,1.255078 0.281371,0.628302 1.333346,0.808302 1.282942,1.620442 -0.04161,0.669687 -1.322344,0.92149 -0.976339,1.606153 0.206115,0.407871 1.163994,1.359912 1.536468,1.656041 0.264997,0.210691 0.802593,0.33163 0.662288,0.771121 -0.157899,0.494609 -0.632955,0.900373 -0.858472,1.3742 -0.22089,0.464115 -0.199818,1.048524 -0.489986,1.474329 -0.25613,0.37586 -0.708263,0.555086 -0.953096,0.946168 -0.190164,0.303763 -0.139267,0.69385 -0.331542,0.985492 -0.278836,0.422939 -0.853887,0.506427 -1.139064,0.967739 -0.798904,1.292337 -1.940963,2.666705 -2.588709,4.024348 -0.232843,0.488037 -0.04231,1.1272 -0.332515,1.574022 -0.321232,0.494588 -1.136175,0.126467 -1.426314,0.748568 -0.335486,0.719336 0.736495,1.55943 0.477209,2.394138 -0.133249,0.428965 -0.628111,1.558139 -0.939949,1.870768 -0.354029,0.354936 -0.916208,0.263705 -1.175544,0.78026 -0.189169,0.376794 0.03316,0.764821 0.08602,1.145361 0.159454,1.148093 0.09222,2.420452 1.294134,3.107476 1.244966,0.711631 3.769715,0.228751 5.172279,0.228751 4.403983,0 8.817644,-0.115043 13.229844,-0.115043 1.38645,0 2.75957,-0.115042 4.14153,-0.115042 0.375259,0 1.11468,-0.137674 1.424432,0.118233 0.356774,0.29476 -0.05346,1.051779 -0.182423,1.37731 -0.498515,1.258653 -1.138857,2.260069 -0.999849,3.681354 0.143955,1.471981 1.206345,2.219655 1.931545,3.355755 0.517675,0.810981 0.559187,1.950547 0.842764,2.856517 0.129673,0.414266 0.458205,0.826057 0.479078,1.265465 0.0429,0.902739 -1.157101,1.954101 -1.904505,2.278738 -0.602533,0.261708 -1.241638,0.03721 -1.571242,0.827838 -0.190121,0.456027 0.259867,0.858235 0.557085,1.143768 0.634114,0.609172 2.100698,2.09933 3.099397,1.594521 0.72533,-0.366636 0.482582,-1.181986 0.712355,-1.813775 0.182405,-0.501532 0.675046,-0.727127 1.133373,-0.924954 0,0.698333 -0.01159,1.386471 0.154101,2.070754 0.07578,0.31281 0.360684,0.776904 0.177094,1.091837 -0.42344,0.726351 -1.547687,1.120513 -2.126588,1.61432 -0.354421,0.302319 -0.379723,0.824848 -0.695149,1.155484 -0.256303,0.268655 -0.882053,0.287945 -0.888021,0.746784 -0.0061,0.486237 0.613293,1.020777 0.893531,1.373765 0.431624,0.543721 0.68316,1.447979 1.23483,1.854604 0.632575,0.466251 1.496721,0.328818 2.160151,0.708358 0.484873,0.277376 0.714534,0.927516 1.277536,1.082331 0.549888,0.1512 1.473634,-0.501763 1.950843,0.105365 0.248319,0.315937 0.04896,0.832069 0.187639,1.193995 0.1643,0.428759 0.622047,0.499292 0.847296,0.855113 0.351186,0.554766 -0.279044,1.717482 -0.901533,1.80205 -0.654485,0.08891 -0.656431,-1.514314 -1.29103,-1.694923 -0.578286,-0.164592 -0.806139,0.869949 -1.48019,0.601394 -0.787092,-0.313601 -0.772664,-1.444655 -1.315701,-1.986782 -0.435334,-0.434598 -1.129817,-0.394204 -1.680363,-0.566768 -0.689803,-0.216225 -1.21625,-0.680412 -1.94542,-0.823756 -2.630596,-0.517137 -4.342376,1.947323 -6.682735,2.506061 -0.507761,-1.605152 -1.271792,-3.043251 -3.325926,-2.613473 -1.910189,0.399661 -2.826573,3.363384 -4.840286,3.334441 -0.533435,-0.0076 -0.734438,-0.714605 -1.15717,-0.949543 -0.940596,-0.522759 -2.304062,-0.779405 -3.331255,-1.19755 -0.342233,-0.139327 -1.050842,-0.275905 -1.255521,-0.610011 -0.386653,-0.631154 1.043507,-1.139519 0.533141,-1.990322 -0.369144,-0.615388 -1.105774,-1.571155 -1.808631,-1.795302 -0.627184,-0.200034 -1.604705,-0.03969 -2.150826,-0.393684 -0.38852,-0.251855 -0.272839,-0.772276 -0.496562,-1.120953 -0.239444,-0.373184 -0.757638,-0.389738 -1.148911,-0.48644 0.392184,-0.957102 0.178946,-2.077681 -1.150421,-2.149316 -0.489344,-0.0263 -1.11325,0.36461 -1.575791,0.218014 -0.694544,-0.220129 -0.900543,-1.247468 -1.875474,-1.31944 -0.455851,-0.03363 -0.878544,0.298462 -1.265464,0.495677 -0.386533,0.19702 -0.90807,0.298871 -1.215575,0.617459 -0.768859,0.796575 0.0088,2.194264 0.410281,2.942895 -1.047232,0.20309 -2.168549,0.86321 -3.22118,0.794915 -3.725171,-0.2417 -6.580384,-2.594748 -10.008666,-3.647348 -1.519738,-0.466604 -3.05215,-0.138756 -4.601685,-0.138659 -1.15496,7.5e-5 -2.432767,-0.05815 -3.56631,0.174257 -0.572788,0.117411 -1.165645,0.586339 -1.721104,0.629088 -0.38404,0.0296 -0.772855,-0.454728 -0.840094,-0.801656 -0.113153,-0.583821 0.897502,-1.163875 1.184154,-1.612281 0.336229,-0.525969 0.36247,-1.152059 0.579291,-1.725627 0.283089,-0.748889 0.765279,-1.420076 1.002449,-2.185803 0.374005,-1.20751 -0.37353,-2.305784 -0.602372,-3.451262 -0.123405,-0.617703 0.249099,-1.131169 0.318586,-1.72563 0.07088,-0.606331 -0.119944,-1.230191 -0.0097,-1.840676 0.180273,-0.998054 1.301239,-1.620788 1.710276,-2.531013 0.29835,-0.663921 0.249991,-1.471994 0.349206,-2.185716 0.198888,-1.430693 0.655363,-3.16047 0.280683,-4.601686 C 27.438201,32.629036 26.560659,31.617652 26.04693,30.599376 25.688153,29.888235 25.629587,29.07405 25.216245,28.347355 24.87262,27.74323 24.275586,27.161397 24.051533,26.50668 23.814806,25.814912 24.254269,25.221023 24.254009,24.550964 24.2537,23.748738 23.683931,22.519998 23.349035,21.790396 22.84767,20.69812 21.471616,20.232384 21.157194,19.028942 c -0.622475,-2.382533 0.108759,-5.36233 -0.05974,-7.822866 -0.128489,-1.876253 -0.10475,-3.753196 -0.10475,-5.637066 0,-0.481171 -0.206196,-1.594815 0.118238,-1.982443 0.401318,-0.479492 1.773499,-0.115801 2.297648,-0.09285 2.253364,0.09867 4.531794,0.0046 6.787489,0.0046 h 19.787248 6.097234 c 0.930463,0 2.088157,-0.184942 2.991095,0.04945 0.355303,0.09223 1.37132,0.494041 1.452675,0.887842 0.186955,0.904966 -2.354799,3.348791 0.272954,3.434315 m -9.433483,51.653861 c -1.110792,0.597952 -2.015745,-0.857805 -3.221181,-0.920338 0.615052,-0.948686 2.956993,0.02788 3.221181,0.920338 z"
       id="path31" /></g></svg>
