<?xml version="1.0" encoding="UTF-8" standalone="no"?>
<!-- Created with Inkscape (http://www.inkscape.org/) -->

<svg
   width="210mm"
   height="297mm"
   viewBox="0 0 210 297"
   version="1.1"
   id="svg1"
   xml:space="preserve"
   xmlns:inkscape="http://www.inkscape.org/namespaces/inkscape"
   xmlns:sodipodi="http://sodipodi.sourceforge.net/DTD/sodipodi-0.dtd"
   xmlns="http://www.w3.org/2000/svg"
   xmlns:svg="http://www.w3.org/2000/svg"><sodipodi:namedview
     id="namedview1"
     pagecolor="#ffffff"
     bordercolor="#000000"
     borderopacity="0.25"
     inkscape:showpageshadow="2"
     inkscape:pageopacity="0.0"
     inkscape:pagecheckerboard="0"
     inkscape:deskcolor="#d1d1d1"
     inkscape:document-units="mm"><inkscape:page
       x="0"
       y="0"
       width="210"
       height="297"
       id="page2"
       margin="0"
       bleed="0" /></sodipodi:namedview><defs
     id="defs1"><style
       id="style1">
      .cls-1 {
        fill: #2c2d3c;
      }

      .cls-1, .cls-2, .cls-3 {
        stroke-width: 0px;
      }

      .cls-2 {
        fill: #67ea94;
      }

      .cls-3 {
        fill: #fff;
      }
    </style><style
       id="style4609">
      .cls-1 {
        fill: #2c2d3c;
      }

      .cls-1, .cls-2 {
        stroke-width: 0px;
      }

      .cls-2 {
        fill: #67ea94;
      }
    </style></defs><g
     inkscape:label="Layer 1"
     inkscape:groupmode="layer"
     id="layer1"><rect
       style="display:none;opacity:1;fill:#67ea94;fill-opacity:1;stroke:none;stroke-width:0.532954;stroke-opacity:1"
       id="rect41"
       width="255.66829"
       height="301.68158"
       x="-16.505117"
       y="-5.5262094" /><text
       xml:space="preserve"
       style="font-style:italic;font-variant:normal;font-weight:600;font-stretch:normal;font-size:10.7333px;line-height:0.5;font-family:'Open Sans';-inkscape-font-specification:'Open Sans, Semi-Bold Italic';font-variant-ligatures:normal;font-variant-caps:normal;font-variant-numeric:normal;font-variant-east-asian:normal;text-align:start;writing-mode:lr-tb;direction:ltr;text-anchor:start;fill:#000000;fill-opacity:1;stroke:#2b2c32;stroke-width:0.143748;stroke-opacity:1"
       x="26.394821"
       y="173.59137"
       id="text42-6"><tspan
         sodipodi:role="line"
         id="tspan42-8"
         style="font-style:italic;font-variant:normal;font-weight:600;font-stretch:normal;font-size:10.7333px;font-family:'Open Sans';-inkscape-font-specification:'Open Sans, Semi-Bold Italic';font-variant-ligatures:normal;font-variant-caps:normal;font-variant-numeric:normal;font-variant-east-asian:normal;fill:#000000;fill-opacity:1;stroke-width:0.143748"
         x="26.394821"
         y="173.59137">Community Powered Messaging</tspan></text><text
       xml:space="preserve"
       style="font-style:italic;font-variant:normal;font-weight:600;font-stretch:normal;font-size:12.6432px;line-height:0.5;font-family:'Open Sans';-inkscape-font-specification:'Open Sans, Semi-Bold Italic';font-variant-ligatures:normal;font-variant-caps:normal;font-variant-numeric:normal;font-variant-east-asian:normal;text-align:start;writing-mode:lr-tb;direction:ltr;text-anchor:start;fill:#000000;fill-opacity:1;stroke:#2b2c32;stroke-width:0.169328;stroke-opacity:1"
       x="10.456895"
       y="59.475437"
       id="text42"><tspan
         sodipodi:role="line"
         id="tspan42"
         style="font-style:italic;font-variant:normal;font-weight:600;font-stretch:normal;font-size:12.6432px;font-family:'Open Sans';-inkscape-font-specification:'Open Sans, Semi-Bold Italic';font-variant-ligatures:normal;font-variant-caps:normal;font-variant-numeric:normal;font-variant-east-asian:normal;fill:#000000;fill-opacity:1;stroke-width:0.169328"
         x="10.456895"
         y="59.475437">Lousiana Meshtastic Community</tspan></text><g
       id="g42"
       transform="matrix(0.26458333,0,0,0.26458333,-27.588127,117.90129)"
       style="fill:#2a283b;fill-opacity:1;stroke:#2a283b;stroke-width:1.00157;stroke-dasharray:none;stroke-opacity:1"><g
         id="g43"
         transform="matrix(0.18973767,0,0,0.18973767,549.69869,-86.956603)"
         style="fill:#2a283b;fill-opacity:1;stroke:#2a283b;stroke-width:5.27873;stroke-dasharray:none;stroke-opacity:1"><path
           class="cls-1"
           d="m -139.63813,554.04605 c -7.4752,10.63141 -14.37214,20.39566 -21.22349,30.19167 -62.68561,89.62731 -125.36335,179.26018 -188.04485,268.89037 -0.57258,0.81874 -1.13637,1.64598 -1.75207,2.43186 -3.82485,4.88178 -4.32372,5.0275 -9.7006,1.46763 -12.70347,-8.41072 -25.36593,-16.88376 -38.01347,-25.37853 -7.79142,-5.23316 -7.90587,-5.83521 -2.57486,-13.44742 31.94418,-45.61377 63.90127,-91.21862 95.8654,-136.81841 43.14434,-61.54964 86.27925,-123.10602 129.48347,-184.61367 3.86001,-5.49532 7.38144,-11.22595 12.24113,-16.03869 13.25674,-13.12876 37.28379,-12.53572 48.96104,3.2886 10.0843,13.6657 19.83342,27.56115 29.65121,41.40787 68.89636,97.16912 137.6986,194.40501 206.52803,291.62153 7.83226,11.0626 7.13773,9.79202 -3.15678,16.9286 -11.69922,8.1105 -23.55601,15.99402 -35.34989,23.968 -7.23496,4.89157 -7.32899,4.94702 -12.23225,-2.06031 -17.75314,-25.37098 -35.44804,-50.78268 -53.1522,-76.18789 -50.8269,-72.93612 -101.64621,-145.87757 -152.47815,-218.81021 -1.42257,-2.04109 -2.95399,-4.00641 -5.05167,-6.841 z"
           id="path4617"
           inkscape:connector-curvature="0"
           style="fill:#2a283b;fill-opacity:1;stroke:#2a283b;stroke-width:5.27873;stroke-dasharray:none;stroke-opacity:1" /><path
           class="cls-1"
           d="m -386.51738,463.88349 c 7.87117,5.4521 15.4219,10.68623 22.97693,15.91419 7.19046,4.97563 14.41224,9.90646 21.5691,14.92977 5.07044,3.55891 5.07218,3.68873 1.57061,8.70379 -17.0186,24.37444 -34.04498,48.74346 -51.08646,73.10193 -41.67234,59.56524 -83.36051,119.11953 -125.03042,178.68659 -23.19794,33.16164 -46.37162,66.34024 -69.55734,99.51043 -0.42938,0.61431 -0.85552,1.23206 -1.31201,1.82605 -3.28418,4.27338 -3.36081,4.38149 -7.68128,1.46951 -13.24726,-8.92863 -26.47837,-17.88298 -39.62011,-26.96553 -5.65973,-3.91147 -5.67003,-4.55452 -1.43534,-10.61153 37.35955,-53.43658 74.73933,-106.85907 112.11651,-160.28331 41.67293,-59.56421 83.34655,-119.12786 125.02859,-178.68569 3.99706,-5.71128 8.05619,-11.3793 12.46122,-17.5962 z"
           id="path4619"
           inkscape:connector-curvature="0"
           style="fill:#2a283b;fill-opacity:1;stroke:#2a283b;stroke-width:5.27873;stroke-dasharray:none;stroke-opacity:1" /></g></g><g
       inkscape:label="Layer 1"
       id="layer1-5"
       style="display:inline"
       transform="translate(37.266668,53.333879)"><path
         style="fill:#99e49c;fill-opacity:1;stroke:none;stroke-width:0.0504196;stroke-opacity:1"
         d="m 380.76901,344.19111 c 0,-0.068 0.8978,-0.61222 1.7977,-1.0897 1.20322,-0.63841 1.49073,-0.82227 1.79582,-1.14844 0.17776,-0.19004 0.24183,-0.30693 0.2926,-0.53379 0.0582,-0.26009 0.0538,-0.33971 -0.0419,-0.76128 -0.0588,-0.25895 -0.2644,-0.86352 -0.45693,-1.34349 -0.19254,-0.47997 -0.40681,-1.05418 -0.47614,-1.27603 -0.15106,-0.48328 -0.35613,-1.41314 -0.32936,-1.49343 0.0105,-0.0315 0.48635,1.18783 1.05745,2.70964 l 1.03835,2.76694 -0.18337,0.1676 c -0.13198,0.12062 -0.78081,0.42797 -2.315,1.09662 -1.17239,0.51097 -2.14233,0.92904 -2.15544,0.92904 -0.0131,0 -0.0238,-0.0107 -0.0238,-0.0237 z"
         id="path14"
         transform="scale(0.26458333)" /><path
         style="fill:#99e49c;fill-opacity:1;stroke:none;stroke-width:0.0504196;stroke-opacity:1"
         d=""
         id="path15"
         transform="scale(0.26458333)" /><path
         style="fill:#99e49c;fill-opacity:1;stroke:none;stroke-width:0.0504196;stroke-opacity:1"
         d="m 374.12864,349.64766 c 0.0738,-0.20242 0.57826,-0.89023 0.8461,-1.15365 0.33676,-0.3312 0.71361,-0.53075 1.13047,-0.59859 0.31888,-0.0519 0.35146,-0.0493 1.38945,0.11067 1.30038,0.20042 1.54335,0.0358 1.84302,-1.24888 0.0707,-0.30297 0.18544,-0.72102 0.25503,-0.929 0.12677,-0.37886 0.35819,-0.83492 0.40162,-0.79149 0.0229,0.0229 -1.01926,3.96357 -1.05868,4.00299 -0.0113,0.0113 -0.66072,-0.22031 -1.44319,-0.51466 -1.39397,-0.52439 -1.42485,-0.53334 -1.53035,-0.44376 -0.0592,0.0503 -0.44861,0.39774 -0.8653,0.7721 -0.9983,0.89689 -1.0087,0.90542 -0.96817,0.79427 z"
         id="path16"
         transform="scale(0.26458333)" /><path
         style="fill:#99e49c;fill-opacity:1;stroke:none;stroke-width:0.0504196;stroke-opacity:1"
         d="m 377.49371,338.76947 c -0.003,-0.0925 0.70192,-7.62414 0.7178,-7.67437 0.006,-0.0197 1.01871,-0.72872 2.24997,-1.57562 l 2.23866,-1.53981 h 0.29493 0.29493 l -0.006,4.09659 -0.006,4.09659 -0.0901,-0.6171 c -0.18322,-1.25503 -0.21274,-1.82088 -0.23675,-4.53725 l -0.0242,-2.73422 -0.10575,0.0566 c -0.0582,0.0311 -0.66845,0.42888 -1.35618,0.88389 -1.4181,0.93822 -1.9836,1.42716 -2.43468,2.1051 -0.44415,0.66751 -0.69127,1.337 -0.87738,2.37694 -0.0995,0.55593 -0.16263,1.34093 -0.25512,3.17192 -0.0353,0.69955 -0.0768,1.05854 -0.15357,1.33076 -0.10874,0.38537 -0.24646,0.69371 -0.25011,0.55998 z"
         id="path17"
         transform="scale(0.26458333)" /><path
         style="fill:#99e49c;fill-opacity:1;stroke:none;stroke-width:0.0504196;stroke-opacity:1"
         d="m 372.63977,341.08543 c -1.85257,-0.1885 -3.87735,-1.01052 -5.82839,-2.36623 -0.28645,-0.19904 -0.51007,-0.37263 -0.49694,-0.38576 0.0131,-0.0131 0.94841,0.46727 2.0784,1.06756 l 2.05453,1.09144 1.90727,0.25931 c 1.049,0.14262 1.89093,0.27452 1.87095,0.29311 -0.0641,0.0596 -1.13073,0.0869 -1.58582,0.0406 z"
         id="path18"
         transform="scale(0.26458333)" /><path
         style="fill:#99e49c;fill-opacity:1;stroke:none;stroke-width:0.0504196;stroke-opacity:1"
         d=""
         id="path19"
         transform="scale(0.26458333)" /><path
         style="fill:#99e49c;fill-opacity:1;stroke:none;stroke-width:0.0504196;stroke-opacity:1"
         d="m 375.02118,340.86659 c 0,-0.0369 2.37982,-1.90215 2.40049,-1.88149 0.0111,0.0111 -0.0685,0.15727 -0.17689,0.32491 -0.39684,0.61399 -1.10725,1.175 -1.83462,1.44878 -0.35145,0.13228 -0.38898,0.14269 -0.38898,0.1078 z"
         id="path20"
         transform="scale(0.26458333)" /><path
         style="fill:#99e49c;fill-opacity:1;stroke:none;stroke-width:0.0504196;stroke-opacity:1"
         d="m 375.31972,340.64704 c 0.87281,-0.69874 1.94437,-1.517 1.96266,-1.4987 0.048,0.048 -0.27965,0.4505 -0.65083,0.79969 -0.27173,0.25563 -0.52652,0.43575 -0.85091,0.60155 -0.52778,0.26976 -0.72939,0.31239 -0.46092,0.0975 z"
         id="path21"
         transform="scale(0.26458333)" /><path
         style="fill:#99e49c;fill-opacity:1;stroke:none;stroke-width:0.0504196;stroke-opacity:1"
         d=""
         id="path22"
         transform="scale(0.26458333)" /><path
         style="fill:#99e49c;fill-opacity:1;stroke:none;stroke-width:0.0504196;stroke-opacity:1"
         d="m 365.11372,337.42897 c -0.5497,-0.44538 -1.60809,-1.34361 -2.38518,-2.02426 l -0.18622,-0.16312 0.63993,-7.5e-4 0.63994,-7.5e-4 0.441,0.59243 c 1.3095,1.75913 1.57855,2.13011 1.54397,2.12887 -0.0209,-7.5e-4 -0.33294,-0.24034 -0.69344,-0.53242 z"
         id="path23"
         transform="scale(0.26458333)" /><path
         style="fill:#99e49c;fill-opacity:1;stroke:none;stroke-width:0.0504196;stroke-opacity:1"
         d="m 365.21456,337.47452 c -0.54198,-0.43741 -2.59661,-2.18984 -2.59661,-2.21468 0,-0.0109 0.26659,-0.0191 0.59243,-0.0184 l 0.59243,10e-4 0.37623,0.51543 c 0.20693,0.28348 0.62398,0.85089 0.92678,1.2609 0.3028,0.41001 0.5419,0.75344 0.53132,0.76318 -0.0106,0.01 -0.20073,-0.12878 -0.42258,-0.30783 z"
         id="path24"
         transform="scale(0.26458333)" /><path
         style="fill:#99e49c;fill-opacity:1;stroke:none;stroke-width:0.0504196;stroke-opacity:1"
         d="m 361.9843,334.72637 c -2.65511,-2.42466 -4.9465,-4.93834 -5.08771,-5.58127 -0.13814,-0.62893 1.55581,-2.92413 3.00647,-4.07357 0.39793,-0.31531 0.93791,-0.65034 0.98012,-0.60812 0.0132,0.0132 -0.79431,0.89993 -1.7944,1.97058 l -1.81834,1.94665 0.0141,0.62292 0.0141,0.62291 2.58868,2.73491 c 1.42377,1.5042 2.57937,2.74422 2.56799,2.7556 -0.0114,0.0114 -0.22335,-0.1644 -0.47105,-0.39061 z"
         id="path25"
         transform="scale(0.26458333)" /><path
         style="fill:#99e49c;fill-opacity:1;stroke:none;stroke-width:0.0504196;stroke-opacity:1"
         d="m 360.23784,333.00902 c -2.1745,-2.16261 -3.31731,-3.5252 -3.31731,-3.9553 0,-0.61745 1.44451,-2.61732 2.63441,-3.64725 0.45743,-0.39593 1.08185,-0.83652 1.12475,-0.79362 0.027,0.027 -0.85405,0.99663 -2.64993,2.91635 l -0.7815,0.8354 0.0155,0.64179 0.0155,0.64179 1.39388,1.47244 c 2.99377,3.16252 3.1321,3.31276 3.05005,3.31276 -0.0293,0 -0.69769,-0.64096 -1.48539,-1.42436 z"
         id="path26"
         transform="scale(0.26458333)" /><path
         style="fill:#2a283b;fill-opacity:1;stroke:#2a283b;stroke-width:1.02544;stroke-dasharray:none;stroke-opacity:1"
         d="m 57.647244,91.401218 c -0.145739,-0.518631 -0.435265,-1.211179 -0.222135,-1.745066 0.309755,-0.775889 2.3638,-1.615194 3.106012,-1.233055 0.737973,0.379925 0.531251,1.487275 1.312823,1.740962 1.0512,0.341193 2.300697,-0.891893 3.331747,-0.179348 0.822905,0.568712 -0.168382,1.444754 0.125764,2.198745 0.290888,0.745658 1.256805,0.484045 1.71008,1.036874 0.425325,0.518734 0.137557,1.318348 0.671241,1.7809 0.546467,0.473643 1.379939,0.09471 2.019903,0.149838 1.444462,0.124355 2.479594,0.58738 3.248147,1.862238 0.663142,1.100013 -1.710194,2.586969 -0.556882,3.774514 0.440645,0.45373 1.681422,0.39009 2.291649,0.64802 1.371297,0.57966 3.395608,0.97134 4.609222,1.70364 1.134279,0.68444 1.291249,2.03529 2.945521,1.44729 2.558137,-0.9093 3.843973,-3.76759 6.361352,-4.479 1.014568,-0.286716 2.475866,0.0513 2.862917,1.10099 0.324172,0.87912 -0.03542,2.31657 1.224519,2.39683 3.214039,0.20471 4.82123,-3.14313 7.875466,-3.52747 1.60115,-0.201471 2.5968,0.64516 4.01847,1.1217 0.58373,0.19566 1.39447,0.19409 1.88473,0.58503 1.23562,0.98534 1.31075,4.49311 3.58014,3.33808 0.39443,-0.20074 0.75892,-0.45563 1.12544,-0.70186 0.2261,0.81998 0.92922,3.09203 1.92603,3.22743 0.60495,0.0822 0.68907,-0.73955 0.84822,-1.1315 0.42053,-1.03575 1.42789,-1.55303 1.66554,-2.7389 0.34523,-1.72254 -0.47681,-1.79674 -1.22054,-2.94365 -0.26017,-0.40124 -0.12315,-0.948152 -0.22857,-1.393944 -0.26038,-1.10111 -3.23223,-2.136025 -3.79437,-1.127508 h -0.32149 c -0.85167,-1.626818 -2.26145,-1.200897 -3.67949,-1.858795 -0.55454,-0.257275 -1.92168,-2.529463 -2.07858,-3.124103 -0.34633,-1.312469 1.44763,-1.838597 2.17307,-2.30132 0.52426,-0.334417 0.43694,-1.057362 0.80866,-1.507804 0.58051,-0.703408 1.73622,-0.637455 1.72522,-1.816878 -0.008,-0.725243 -0.47497,-1.394108 -0.63204,-2.089484 -0.20507,-0.907768 0.30877,-2.567661 -0.38934,-3.27853 -0.49644,-0.505532 -1.29605,-0.08876 -1.78523,0.196583 -1.63519,0.953809 -1.92887,1.9204 -1.92887,3.724903 l -1.44666,-0.482209 c 0.48512,-2.614745 -1.59263,-0.713702 -2.08959,-2.41109 1.99419,0.336339 4.57248,-1.832904 4.89868,-4.018484 0.11064,-0.741161 -0.49291,-1.42488 -0.72493,-2.089604 -0.57467,-1.646298 -0.60434,-3.543093 -1.71134,-4.982912 -0.89603,-1.165435 -2.1506,-2.260627 -2.24015,-3.857737 -0.11577,-2.064635 0.99922,-3.739175 1.65128,-5.625878 0.19027,-0.550553 0.71201,-1.775973 0.11906,-2.245883 -0.44687,-0.354136 -1.4578,-0.1652 -1.9926,-0.1652 H 95.742425 75.971509 c -2.406676,0 -7.370251,1.368467 -8.502557,-1.446654 -0.175182,-0.435527 -0.342749,-2.783818 -0.06363,-3.118414 0.346153,-0.414949 1.002708,-0.28686 1.342846,-0.776036 0.495913,-0.713212 1.109045,-2.191651 1.435243,-3.017333 0.413051,-1.04554 -0.69465,-1.954711 -0.400602,-2.844683 0.196106,-0.593539 1.242723,-0.682631 1.556416,-1.34148 0.337507,-0.708875 0.136485,-1.552688 0.48184,-2.243402 0.891114,-1.782211 2.38573,-3.80083 3.528945,-5.443804 0.414199,-0.595266 1.200081,-0.633852 1.627359,-1.19066 0.352889,-0.45987 0.179121,-1.060297 0.445257,-1.548223 0.333338,-0.611141 1.069724,-0.856175 1.419745,-1.468109 0.390622,-0.682937 0.371217,-1.53445 0.726172,-2.243904 0.406502,-0.812494 1.49936,-1.604682 1.475552,-2.571698 -0.02818,-1.144835 -1.8175,-1.772015 -2.316205,-2.800906 -0.355259,-0.732942 0.202254,-1.458701 0.346777,-2.182136 0.254179,-1.272265 -0.580434,-2.219071 -1.656501,-2.732565 0.367154,-0.667435 0.920389,-2.144963 0.07814,-2.725866 -0.411266,-0.283649 -1.245885,0.04398 -1.335896,-0.661441 -0.08448,-0.662089 0.770091,-1.346996 1.029919,-1.917088 0.731119,-1.604175 -0.415712,-2.820746 -1.889057,-3.287835 -1.177693,-0.373358 -2.762136,-0.05993 -3.991194,-0.09004 -2.996828,-0.0734 -5.993734,-0.158384 -9.001394,-0.158384 -9.117708,0 -18.20884,-0.16074 -27.325655,-0.16074 H 23.731281 c -0.773704,0 -3.175853,-0.394636 -3.692536,0.257728 -0.451195,0.569681 -0.165204,2.101961 -0.165204,2.796317 v 7.554743 c 0,2.741927 0.16074,5.459108 0.16074,8.197699 0,1.452057 -0.286543,3.247942 0.05048,4.661434 0.425295,1.78374 2.529121,2.430414 3.202755,4.019096 0.375379,0.885303 1.046923,2.253303 1.051623,3.214166 0.0056,1.159806 -0.56347,2.191377 -0.101824,3.375522 0.419947,1.07721 1.368842,2.037682 1.945243,3.054044 0.44269,0.780583 0.278919,1.63813 0.653866,2.411088 0.714644,1.473243 1.919775,2.73403 2.452518,4.339956 0.571919,1.724012 -0.219289,3.896808 -0.38672,5.62587 -0.104444,1.078651 -0.0076,2.211947 -0.509491,3.214788 -0.651903,1.302789 -2.138809,2.173033 -2.37674,3.696997 -0.263055,1.684877 -0.595541,4.105936 -0.302995,5.786608 0.232239,1.334217 1.188169,2.612874 0.733373,4.018477 -0.313952,0.970295 -0.991209,1.780115 -1.354011,2.732569 -0.309606,0.812794 -0.302366,1.674654 -0.822422,2.410466 -0.630901,0.892655 -2.245925,1.582027 -1.877893,2.893924 0.2078,0.740708 1.170508,2.192353 1.997211,2.326872 0.937974,0.152615 1.959655,-0.871332 2.878293,-1.069977 1.853975,-0.400914 3.897464,-0.291739 5.786608,-0.292459 1.831225,-6.06e-4 3.492899,-0.310264 5.304394,0.186166 2.273756,0.623106 4.174705,2.027939 6.268828,3.031095 2.086842,0.99968 4.950596,1.664743 7.233261,2.034911 2.330247,0.377885 4.136571,-1.235965 6.429566,-1.159893 1.584983,0.05263 3.181575,2.200437 4.500695,1.901706 1.850189,-0.419018 2.397481,-2.330323 0.797252,-3.427618 -1.658782,-1.137444 -4.057801,-1.48456 -5.940902,-0.798245 M 76.614463,21.801173 c -0.144796,0.538503 -0.721288,1.188758 -0.468323,1.753621 0.393131,0.877876 1.862978,1.129375 1.792555,2.264113 -0.05808,0.9357 -1.847613,1.287523 -1.364169,2.244149 0.287994,0.569885 1.626357,1.900096 2.146787,2.313853 0.370263,0.294381 1.121405,0.46336 0.925365,1.077425 -0.220627,0.691078 -0.884377,1.25802 -1.199472,1.92006 -0.308638,0.64847 -0.279191,1.465018 -0.684624,2.059962 -0.357871,0.525158 -0.989599,0.775577 -1.33168,1.322005 -0.265704,0.424423 -0.194594,0.969459 -0.463238,1.376948 -0.389596,0.59094 -1.193069,0.70759 -1.591522,1.352145 -1.116253,1.805677 -2.71196,3.725973 -3.617003,5.622898 -0.325333,0.681895 -0.05911,1.574947 -0.464597,2.199255 -0.448832,0.691048 -1.587485,0.176701 -1.992874,1.045913 -0.468748,1.00507 1.029046,2.178867 0.666766,3.345138 -0.186179,0.599358 -0.87761,2.177062 -1.313315,2.613874 -0.494657,0.495923 -1.280145,0.368454 -1.642494,1.090194 -0.264311,0.526464 0.04634,1.068623 0.120181,1.600321 0.222793,1.604139 0.128854,3.381905 1.80819,4.341828 1.739491,0.994305 5.267121,0.319614 7.226816,0.319614 6.153331,0 12.320187,-0.160739 18.485003,-0.160739 1.937172,0 3.855723,-0.160739 5.786623,-0.160739 0.52432,0 1.557452,-0.192361 1.990242,0.165198 0.49849,0.411844 -0.0747,1.469565 -0.25488,1.924404 -0.69654,1.758614 -1.591232,3.157813 -1.397012,5.143661 0.20114,2.056681 1.685522,3.101346 2.698792,4.688726 0.7233,1.13312 0.7813,2.725344 1.17752,3.991183 0.18118,0.578821 0.64022,1.154183 0.66938,1.768133 0.0599,1.261325 -1.61672,2.730309 -2.66101,3.183898 -0.84187,0.365663 -1.734832,0.05199 -2.195372,1.156672 -0.265637,0.637169 0.3631,1.199142 0.778372,1.598095 0.88599,0.851146 2.93513,2.933225 4.33053,2.227896 1.01345,-0.512271 0.67428,-1.651495 0.99532,-2.534243 0.25486,-0.700751 0.94319,-1.015956 1.58357,-1.292363 0,0.975724 -0.0162,1.937205 0.21532,2.893299 0.10582,0.437064 0.50395,1.085504 0.24744,1.525535 -0.59164,1.014873 -2.16247,1.565603 -2.97132,2.255561 -0.4952,0.422405 -0.53055,1.152493 -0.97127,1.614464 -0.35811,0.375371 -1.23242,0.402323 -1.24076,1.043421 -0.009,0.67938 0.8569,1.42625 1.24846,1.919453 0.60307,0.759697 0.95452,2.023144 1.72533,2.591289 0.88384,0.651455 2.09125,0.45943 3.0182,0.989732 0.67748,0.387555 0.99836,1.295943 1.785,1.512254 0.76832,0.21126 2.05899,-0.701073 2.72576,0.147217 0.34696,0.441434 0.0684,1.162584 0.26218,1.668274 0.22956,0.59907 0.86913,0.69762 1.18385,1.19478 0.49069,0.77513 -0.38988,2.3997 -1.25963,2.51786 -0.91447,0.12422 -0.91719,-2.11583 -1.80386,-2.36818 -0.808,-0.22997 -1.12636,1.21551 -2.06815,0.84028 -1.09975,-0.43817 -1.07958,-2.0185 -1.83833,-2.77597 -0.60825,-0.60723 -1.5786,-0.55079 -2.34783,-0.7919 -0.96381,-0.302113 -1.69937,-0.950685 -2.71818,-1.150967 -3.675516,-0.722556 -6.067256,2.720837 -9.337242,3.501517 -0.70946,-2.24275 -1.776978,-4.25209 -4.647052,-3.651595 -2.668954,0.558413 -3.949349,4.699385 -6.762947,4.658945 -0.74532,-0.0106 -1.026176,-0.99846 -1.616818,-1.32672 -1.314219,-0.73041 -3.219287,-1.089 -4.654493,-1.67324 -0.478184,-0.19467 -1.46826,-0.3855 -1.754238,-0.852319 -0.540249,-0.881862 1.458006,-1.592159 0.744915,-2.780918 -0.515784,-0.859832 -1.545018,-2.195248 -2.527064,-2.508432 -0.876314,-0.27949 -2.242126,-0.05545 -3.005176,-0.550062 -0.542848,-0.351897 -0.381216,-1.07904 -0.693806,-1.566218 -0.334557,-0.52142 -1.058588,-0.544549 -1.605282,-0.679664 0.547968,-1.337281 0.250027,-2.902977 -1.607392,-3.003067 -0.68372,-0.03676 -1.555453,0.509441 -2.201726,0.304614 -0.97043,-0.307569 -1.258256,-1.742987 -2.620448,-1.843548 -0.636924,-0.04699 -1.22752,0.417017 -1.768132,0.69257 -0.540071,0.275281 -1.268773,0.417589 -1.698425,0.862726 -1.074266,1.11299 0.01237,3.065869 0.573252,4.111871 -1.463213,0.283761 -3.02994,1.206093 -4.500697,1.110671 -5.204882,-0.337707 -9.194243,-3.625433 -13.984306,-5.096146 -2.123407,-0.651948 -4.264524,-0.193874 -6.429566,-0.193738 -1.61373,1.05e-4 -3.399107,-0.08124 -4.982915,0.243475 -0.80031,0.164049 -1.628661,0.819245 -2.404759,0.878975 -0.536588,0.04136 -1.079848,-0.635355 -1.173796,-1.12009 -0.158099,-0.815726 1.254008,-1.626189 1.654523,-2.25271 0.469786,-0.734896 0.50645,-1.60968 0.809397,-2.411081 0.395538,-1.046363 1.069261,-1.984159 1.400639,-3.054047 0.522568,-1.687158 -0.521902,-3.221687 -0.841644,-4.822173 -0.172424,-0.863066 0.348045,-1.580491 0.445133,-2.411083 0.09903,-0.847177 -0.167588,-1.718847 -0.01352,-2.57183 0.251881,-1.394501 1.818117,-2.264596 2.389631,-3.536381 0.416859,-0.927644 0.349292,-2.056699 0.487918,-3.053926 0.27789,-1.998992 0.915685,-4.415872 0.392175,-6.429566 -0.408755,-1.572289 -1.634873,-2.985415 -2.352666,-4.40817 -0.501289,-0.993621 -0.58312,-2.131216 -1.160649,-3.146568 -0.480119,-0.844096 -1.314306,-1.657045 -1.627357,-2.571827 -0.330759,-0.966554 0.283266,-1.796346 0.282903,-2.732566 -4.32e-4,-1.120886 -0.796524,-2.837706 -1.264446,-3.857121 -0.700517,-1.526149 -2.623167,-2.176885 -3.062482,-3.858358 -0.869733,-3.328922 0.151959,-7.492353 -0.08347,-10.930263 -0.179527,-2.621538 -0.146358,-5.244039 -0.146358,-7.876221 0,-0.672301 -0.288101,-2.228306 0.165204,-2.769908 0.560731,-0.669955 2.477967,-0.161799 3.210319,-0.129727 3.148442,0.137861 6.331909,0.0064 9.483609,0.0064 h 27.647134 8.519177 c 1.300061,0 2.917615,-0.258404 4.179218,0.06909 0.496434,0.128864 1.916038,0.690284 2.029705,1.24051 0.26122,1.264438 -3.290171,4.678998 0.381382,4.798494 M 63.43386,93.973058 c -1.55202,0.835469 -2.816438,-1.198543 -4.500697,-1.285915 0.859362,-1.325523 4.131569,0.03895 4.500697,1.285915 z"
         id="path31" /></g></g></svg>
